<?xml version="1.0" encoding="UTF-8" standalone="no"?>
<svg
   xmlns:dc="http://purl.org/dc/elements/1.1/"
   xmlns:cc="http://creativecommons.org/ns#"
   xmlns:rdf="http://www.w3.org/1999/02/22-rdf-syntax-ns#"
   xmlns:svg="http://www.w3.org/2000/svg"
   xmlns="http://www.w3.org/2000/svg"
   xmlns:xlink="http://www.w3.org/1999/xlink"
   xmlns:sodipodi="http://sodipodi.sourceforge.net/DTD/sodipodi-0.dtd"
   xmlns:inkscape="http://www.inkscape.org/namespaces/inkscape"
   width="1236.6845703125"
   height="1252.9075927734375"
   version="1.1"
   id="svg62"
   sodipodi:docname="Icon.svg"
   inkscape:version="0.92.5 (2060ec1f9f, 2020-04-08)">
  <metadata
     id="metadata68">
    <rdf:RDF>
      <cc:Work
         rdf:about="">
        <dc:format>image/svg+xml</dc:format>
        <dc:type
           rdf:resource="http://purl.org/dc/dcmitype/StillImage" />
        <dc:title />
      </cc:Work>
    </rdf:RDF>
  </metadata>
  <defs
     id="defs66">
    <linearGradient
       inkscape:collect="always"
       id="linearGradient881">
      <stop
         style="stop-color:#ffffff;stop-opacity:1;"
         offset="0"
         id="stop877" />
      <stop
         style="stop-color:#ffffff;stop-opacity:0;"
         offset="1"
         id="stop879" />
    </linearGradient>
    <linearGradient
       inkscape:collect="always"
       xlink:href="#linearGradient881"
       id="linearGradient883"
       x1="478.05554"
       y1="596.51843"
       x2="657.83715"
       y2="596.51843"
       gradientUnits="userSpaceOnUse" />
  </defs>
  <sodipodi:namedview
     pagecolor="#202020"
     bordercolor="#666666"
     borderopacity="1"
     objecttolerance="10"
     gridtolerance="10"
     guidetolerance="10"
     inkscape:pageopacity="0"
     inkscape:pageshadow="2"
     inkscape:window-width="1842"
     inkscape:window-height="1016"
     id="namedview64"
     showgrid="false"
     inkscape:zoom="0.38541141"
     inkscape:cx="249.59971"
     inkscape:cy="292.13974"
     inkscape:window-x="78"
     inkscape:window-y="27"
     inkscape:window-maximized="1"
     inkscape:current-layer="layer2" />
  <!-- Created with LeoMoon Bezier2SVG -->
  <g
     inkscape:groupmode="layer"
     id="layer2"
     inkscape:label="Layer 1"
     style="display:inline">
    <g
       id="g60"
       style="fill:none;fill-opacity:1;stroke:#18ff3f;stroke-width:28.20000076;stroke-miterlimit:4;stroke-dasharray:none;stroke-opacity:0.98642536">
      <title
         id="title57">RoundedNet</title>
      <path
         d="m 118.34221,601.03656 c 0,-276.06265 223.93736,-500.00002 500.00001,-500.00002 276.06257,0 499.99998,223.93737 499.99998,500.00002 0,276.06256 -223.93741,499.99994 -499.99998,499.99994 -276.06265,0 -500.00001,-223.93738 -500.00001,-499.99994 m 13.20962,-114.62064 c 265.8091,-125.84149 707.77196,-125.84121 973.58097,6.4e-4 M 228.2115,913.72729 C 288.91278,642.13965 572.38586,277.71277 838.19495,151.87125 m -439.70496,-2.8e-4 c 265.8089,125.8418 545.93121,475.27887 609.98251,761.85681 M 618.34186,1101.0365 C 435.23212,869.84253 334.43848,438.44882 398.49002,151.87091 M 228.2115,913.72729 c 293.5009,7e-5 693.81114,-196.117 876.9212,-427.31076 m -973.58087,-6.7e-4 C 314.66165,717.61005 714.97144,913.72754 1008.4725,913.72778 M 618.34186,1101.0365 C 801.4519,869.84253 902.24609,438.44919 838.19495,151.8712 M 131.55183,486.41586 C 179.88171,700.07159 423.2767,1007.3818 618.34186,1101.0365 M 1105.1328,486.41656 C 1056.8025,700.0722 813.4071,1007.3822 618.34186,1101.0365 M 131.55183,486.41592 C 265.0209,319.1434 618.34247,151.8712 838.19495,151.8712 m -439.70493,-2.3e-4 c 219.85245,1.8e-4 573.17392,167.27286 706.64278,334.54556 M 228.21146,913.72729 C 179.88171,700.07159 265.0209,319.14334 398.49002,151.87097 M 228.2115,913.72729 c 195.0652,93.65451 585.19573,93.65481 780.2609,4.9e-4 m 10e-5,0 C 1056.8025,700.0722 971.66376,319.14392 838.19495,151.8712"
         id="svg_RoundedNet"
         style="opacity:1;fill:none;fill-opacity:1;stroke:#18ff3f;stroke-width:28.20000076;stroke-miterlimit:4;stroke-dasharray:none;stroke-opacity:0.98642536"
         inkscape:connector-curvature="0" />
    </g>
  </g>
  <g
     inkscape:groupmode="layer"
     id="layer1"
     inkscape:label="Layer 2"
     style="display:inline">
    <g
       id="g5"
       style="opacity:1;fill:#0000ff;fill-opacity:1">
      <title
         id="title2">path4522</title>
      <path
         d="m 618.34204,949.16553 c -43.85052,25.31189 -87.70111,50.62372 -131.55167,75.93557 0,50.6238 0,101.2473 0,151.8709 43.85056,25.3118 87.70115,50.6237 131.55167,75.9356 43.85071,-25.3119 87.70142,-50.6238 131.55213,-75.9356 0,-50.6236 0,-101.2471 0,-151.8709 -43.85071,-25.31185 -87.70142,-50.62368 -131.55213,-75.93557"
         id="svg_path4522"
         style="opacity:1;fill:#0001ff;fill-opacity:1;stroke:#000000;stroke-width:1.5"
         inkscape:connector-curvature="0" />
    </g>
    <g
       id="g10"
       style="opacity:1;fill:#0005ff;fill-opacity:1">
      <title
         id="title7">path4522.001</title>
      <path
         d="M 131.5517,334.54489 C 87.701126,359.85675 43.850563,385.16861 0,410.48041 c 0,50.62369 0,101.24731 0,151.87103 43.850563,25.31183 87.701126,50.62366 131.5517,75.93549 43.8507,-25.31183 87.70137,-50.62366 131.55206,-75.93549 0,-50.62372 0,-101.24734 0,-151.87103 -43.85069,-25.3118 -87.70136,-50.62366 -131.55206,-75.93552"
         id="svg_path4522.001"
         style="opacity:1;fill:#0001ff;fill-opacity:1;stroke:#000000;stroke-width:1.5"
         inkscape:connector-curvature="0" />
    </g>
    <g
       id="g15"
       style="opacity:1;fill:#0000ff;fill-opacity:1">
      <title
         id="title12">path4522.002</title>
      <path
         d="m 228.2113,761.85626 c -43.85051,25.31183 -87.70108,50.62372 -131.55164,75.93555 0,50.6236 0,101.24725 0,151.87091 43.85056,25.31188 87.70113,50.62378 131.55164,75.93558 43.85077,-25.3118 87.70142,-50.6237 131.55213,-75.93558 0,-50.62366 0,-101.24731 0,-151.87091 -43.85071,-25.31183 -87.70136,-50.62372 -131.55213,-75.93555"
         id="svg_path4522.002"
         style="opacity:1;fill:#0000ff;fill-opacity:1;stroke:#000000;stroke-width:1.5"
         inkscape:connector-curvature="0" />
    </g>
    <g
       id="g20"
       style="opacity:0.85700001;fill:#0000ff;fill-opacity:1">
      <title
         id="title17">path4522.003</title>
      <path
         d="m 1105.1324,334.54556 c -43.8504,25.31186 -87.7011,50.62372 -131.55159,75.93552 0,50.62366 0,101.24731 0,151.87103 43.85049,25.31177 87.70119,50.62366 131.55159,75.93543 43.8508,-25.31177 87.7015,-50.62366 131.5522,-75.93543 0,-50.62372 0,-101.24737 0,-151.87103 -43.8507,-25.3118 -87.7014,-50.62366 -131.5522,-75.93552"
         id="svg_path4522.003"
         style="opacity:1;fill:#0001ff;fill-opacity:1;stroke:#000000;stroke-width:1.5"
         inkscape:connector-curvature="0" />
    </g>
    <g
       id="g25"
       style="opacity:1;fill:#0000ff;fill-opacity:1">
      <title
         id="title22">path4522.004</title>
      <path
         d="m 1008.4724,761.85681 c -43.85057,25.31183 -87.70116,50.62366 -131.55168,75.93549 0,50.62372 0,101.24731 0,151.87103 43.85052,25.31187 87.70111,50.62367 131.55168,75.93557 43.8506,-25.3119 87.7013,-50.6237 131.552,-75.93557 0,-50.62372 0,-101.24731 0,-151.87103 -43.8507,-25.31183 -87.7014,-50.62366 -131.552,-75.93549"
         id="svg_path4522.004"
         style="opacity:1;fill:#0000ff;fill-opacity:1;stroke:#000000;stroke-width:1.5"
         inkscape:connector-curvature="0" />
    </g>
    <g
       id="g30"
       style="fill:#0000ff;fill-opacity:1">
      <title
         id="title27">path4522.005</title>
      <path
         d="M 838.19476,2.8610229e-4 C 794.34424,25.31209 750.49365,50.62394 706.64313,75.935745 c 0,50.623705 0,101.247365 0,151.871015 43.85052,25.31185 87.70111,50.62366 131.55163,75.93552 43.85071,-25.31186 87.70142,-50.62367 131.55213,-75.93552 0,-50.62365 0,-101.24731 0,-151.871015 C 925.89618,50.62394 882.04547,25.31209 838.19476,2.8610229e-4"
         id="svg_path4522.005"
         style="opacity:1;fill:#0000ff;fill-opacity:1;stroke:#000000;stroke-width:1.5"
         inkscape:connector-curvature="0" />
    </g>
    <g
       id="g35"
       style="opacity:1;fill:#0000ff;fill-opacity:1">
      <title
         id="title32">path4522.006</title>
      <path
         d="m 398.48981,0 c -43.85053,25.311804 -87.70111,50.623657 -131.55164,75.935455 0,50.623705 0,101.247365 0,151.871015 43.85053,25.31185 87.70111,50.62364 131.55164,75.9355 43.85077,-25.31186 87.70141,-50.62365 131.55212,-75.9355 0,-50.62365 0,-101.24731 0,-151.871015 C 486.19122,50.623657 442.34058,25.311804 398.48981,0"
         id="svg_path4522.006"
         style="opacity:1;fill:#0001ff;fill-opacity:1;stroke:#000000;stroke-width:1.5"
         inkscape:connector-curvature="0" />
    </g>
  </g>
</svg>
